PathFileType	4	(X/Y/Z)	C:/Users/beibeiliu/ov580/test_trc/User3\sequence.35_training_dense_right.trc
DataRate	CameraRate	NumFrames	NumMarkers	Units	OrigDataRate	OrigDataStartFrame	OrigNumFrames
120	120	24	19	mm	120	167	267
Frame#	Time	ThumbCMC			ThumbMCP			ThumbIP			ThumbTip			IndexMCP			IndexPIP			IndexTip			MiddleMCP			MiddlePIP			MiddleTip			RingMCP			RingPIP			RingTip			PinkyMCP			PinkyPIP			PinkyTip			BackHand1			BackHand2			BackHand3	
		X0	Y0	Z0	X1	Y1	Z1	X2	Y2	Z2	X3	Y3	Z3	X4	Y4	Z4	X5	Y5	Z5	X6	Y6	Z6	X7	Y7	Z7	X8	Y8	Z8	X9	Y9	Z9	X10	Y10	Z10	X11	Y11	Z11	X12	Y12	Z12	X13	Y13	Z13	X14	Y14	Z14	X15	Y15	Z15	X16	Y16	Z16	X17	Y17	Z17	X18	Y18	Z18	
166	1.38333	79.8794	26.1849	40.8389	69.0991	37.844	12.0631	62.8631	48.6871	-13.2579	70.6232	44.9446	-37.1223	106.752	61.0744	-17.9839	86.943	63.9735	-45.0424	61.8076	52.4371	-53.5811	106.107	43.2383	-30.4809	76.7459	29.8406	-39.7357	68.4493	7.79192	-5.9972	113.156	21.3519	-31.0364	86.0753	5.97162	-36.1223	80.0956	-3.28539	-5.39324	122.613	5.90893	-26.3145	97.7922	-2.16917	-39.692	84.7063	-7.50916	-14.1828	135.58	12.2067	20.8133	131.812	-7.55219	44.1735	116.686	27.7973	46.3948	
167	1.39167	76.777	28.6636	43.8995	66.1117	38.5721	14.9884	61.2207	51.8207	-16.5884	64.1408	43.8722	-37.4749	100.862	64.3879	-19.8079	83.127	65.8546	-43.7651	54.9101	48.6241	-53.8862	101.557	43.003	-31.1469	73.3457	29.7333	-40.8856	65.1061	6.22643	-6.41843	107.589	19.3137	-32.7249	76.9665	7.21252	-35.0808	75.9949	-3.56341	-4.31723	116.636	1.81794	-31.1813	91.0486	-0.754096	-39.4461	79.6962	-10.2654	-12.8207	133.546	9.95017	16.7759	131.811	-8.86975	43.8554	118.362	27.5415	43.0342	
168	1.4	75.6544	30.0363	45.4878	65.6962	38.0826	13.7914	58.4949	47.3767	-12.1411	60.2935	42.3293	-36.5873	97.6983	60.1901	-20.9473	75.7974	59.5255	-48.1774	49.4608	48.4576	-52.5371	97.5432	39.4047	-32.6428	66.3833	28.6174	-40.9745	60.6437	7.60109	-7.55347	100.943	14.5403	-35.8372	69.5748	2.30286	-33.536	70.5332	-1.11359	-0.0203431	107.261	-2.05783	-36.9253	80.9881	-2.7292	-37.4417	70.7904	-12.3249	-11.2438	132.022	6.81948	14.6872	129.841	-5.92468	39.4641	116.685	24.9551	40.9477	
169	1.40833	78.7988	30.8286	43.8905	62.6982	41.2986	14.8557	54.036	47.7559	-11.2738	50.8523	41.7144	-40.0689	92.7728	53.9324	-31.6069	70.6116	57.4352	-48.1827	42.4142	47.6409	-50.3891	91.4012	34.7626	-36.3911	56.3277	24.4212	-38.2847	55.1787	7.53388	-2.70166	92.9628	11.6162	-36.1227	61.9261	1.44772	-31.9023	66.0742	-1.43552	1.76009	98.6106	-6.62138	-37.6674	74.3327	-9.52357	-38.8871	66.0357	-11.0836	-5.80236	129.701	3.08103	8.16703	125.537	-8.60146	40.7854	115.926	24.28	36.668	
170	1.41667	81.9888	31.8138	37.8306	60.2892	41.7986	14.139	48.5445	47.3164	-15.6002	44.9974	34.4967	-34.677	89.0961	47.8003	-32.7328	64.3707	49.6918	-50.5059	30.3042	39.2724	-47.0241	84.4115	24.7877	-40.8813	49.0223	20.5568	-36.4868	51.6348	6.33347	-0.256366	84.4763	7.32702	-37.0965	55.9833	-0.653108	-33.7518	59.9143	-4.93604	2.68404	90.7942	-12.347	-35.4441	62.2672	-11.9334	-33.8804	60.1563	-16.1636	-2.02578	122.923	-2.92892	3.39623	125.801	-11.2487	35.1716	117.121	20.5387	31.1743	
171	1.425	83.0839	34.6496	35.4473	62.2707	37.8023	13.9048	46.4458	40.4436	-14.373	36.6294	29.9177	-33.2156	81.6531	39.964	-38.6769	53.4137	40.6868	-52.2588	23.3717	35.9434	-42.8864	73.6893	18.0795	-44.1739	41.8718	13.4016	-36.5915	43.3062	6.10709	2.1818	76.4929	-4.43127	-37.4126	45.1488	-3.26918	-28.0262	53.5165	-5.50212	6.26789	79.5777	-20.2425	-35.5628	53.6386	-18.7556	-33.6111	50.8982	-14.7662	0.990113	117.682	-8.25388	2.44628	122.759	-16.9027	29.6934	118.605	21.0556	25.6385	
172	1.43333	86.9695	31.3813	32.1406	61.7309	37.844	13.3053	40.0801	43.5002	-10.8275	28.1295	27.8573	-29.4632	75.7918	32.7715	-39.5026	43.4452	37.3682	-49.1171	14.2701	35.3583	-36.2957	66.1222	13.8984	-42.8953	32.8323	16.522	-32.2557	35.4338	8.81135	3.83064	63.915	-8.36899	-36.2907	36.468	-7.99909	-26.9247	43.2045	-0.898632	6.81516	69.6685	-31.5208	-27.912	40.2833	-23.4515	-25.7124	43.1555	-12.6243	3.43332	110.605	-16.5323	-1.17347	119.384	-20.8828	27.2888	118.54	10.9436	18.4309	
173	1.44167	91.8486	28.1669	31.9192	64.6116	37.1094	15.4106	40.6981	45.6215	-5.54087	21.1131	32.1833	-21.464	66.8338	28.2153	-40.4778	38.0913	32.6155	-45.4033	10.7487	34.409	-29.6662	57.2477	6.32692	-40.4512	26.6487	16.5551	-29.4553	30.3187	13.3731	10.5406	55.5865	-12.5537	-30.9534	27.9935	-3.83942	-19.5928	38.1565	0.695254	13.8608	57.6584	-34.1472	-21.2806	32.3317	-21.5164	-20.4174	32.9583	-8.85934	9.70564	103.111	-23.2407	1.50574	117.407	-29.2826	27.4763	117.339	8.68366	13.464	
174	1.45	97.0699	27.7751	33.2075	67.5193	39.0043	15.4385	45.8237	47.2027	2.28891	21.3585	41.0443	-12.6413	63.9032	25.878	-37.3775	36.1387	36.1912	-39.3499	9.1454	41.31	-21.4657	53.8261	3.80439	-35.5954	25.3493	16.5928	-26.2153	27.3883	21.4523	14.9831	49.424	-13.5318	-25.8883	21.7779	-1.39233	-9.24709	34.0848	1.95668	21.2283	49.2984	-31.5785	-15.6151	25.5151	-18.9403	-10.8037	32.2761	-5.19852	17.2473	99.6726	-28.88	0.616588	112.347	-36.2694	29.0879	116.241	0.228298	14.1586	
175	1.45833	100.81	26.2997	31.9873	73.703	41.4575	16.9384	52.2162	54.5025	1.64925	31.2737	49.2455	-7.60904	65.653	24.2422	-34.0359	36.9868	38.2837	-36.7399	14.1624	49.86	-15.6984	53.4803	7.74151	-32.6407	23.2811	23.7405	-18.4686	27.6012	21.3435	16.8893	44.5098	-10.893	-22.1949	22.114	3.74109	-6.23179	33.5121	7.48759	21.4448	42.4212	-28.649	-12.9399	23.6801	-11.5621	-4.91983	27.5325	-1.98911	23.0859	96.0914	-34.0455	4.51679	110.483	-35.5469	30.8828	116.472	-5.18141	11.3429	
176	1.46667	105.965	23.7168	32.3451	82.3322	41.2515	16.3184	62.7536	58.858	-0.608295	42.5956	59.1733	-11.6144	66.9528	24.051	-34.6576	42.5037	43.9276	-35.4924	24.7996	55.0955	-14.31	51.7157	9.53715	-32.0359	28.1719	27.6881	-17.2526	35.3026	25.7896	20.1964	46.0297	-4.25339	-22.1643	25.6588	9.7147	-8.15316	40.7855	11.6183	25.6748	43.6201	-25.1544	-10.7122	21.7048	-10.8338	-2.48486	28.58	1.4149	23.6402	91.3049	-32.438	2.14487	109.792	-39.3472	30.9766	115.986	-6.50835	12.8779	
177	1.475	112.028	24.4637	32.4832	90.206	43.9793	15.9873	71.9512	56.4089	-4.99233	56.7601	71.1561	-15.2644	75.3445	29.4632	-37.3071	46.6433	45.6824	-35.6464	34.1093	58.3453	-12.7515	58.7879	10.4471	-32.0766	35.5845	35.3061	-17.4408	46.3335	30.9767	21.5507	47.398	-5.28379	-21.3101	27.9166	13.4724	-6.92123	45.5699	16.7791	23.0597	44.0493	-23.1228	-9.85528	26.7705	-2.51344	-7.66731	37.6185	10.0649	19.9135	95.6008	-32.4318	4.88773	108.556	-41.6377	30.6238	121.473	-8.47732	12.7382	
178	1.48333	116.966	19.5879	31.2062	97.5291	42.028	9.45288	85.4673	60.8989	-8.60425	69.5686	70.1376	-23.0571	85.3331	26.2866	-38.2526	58.58	46.2742	-42.9683	44.3463	63.0757	-17.4056	65.299	13.5272	-34.7586	43.7448	37.2783	-24.6743	55.6298	33.2927	16.9183	52.6841	1.96473	-25.8376	33.3208	17.1652	-10.1038	50.5935	18.4762	18.8686	50.2734	-17.4437	-13.1213	31.7345	3.73763	-10.9177	39.4086	12.9763	17.1895	94.4113	-31.0408	2.94517	106.073	-42.8347	27.9341	119.976	-12.4134	11.8038	
179	1.49167	121.485	17.8731	26.3232	105.214	36.7733	8.01682	93.9331	52.6327	-10.4933	75.9962	59.7202	-28.3448	87.3208	21.5506	-44.3837	69.5192	46.5529	-49.1283	52.2072	59.5331	-30.2544	72.1444	10.38	-39.5492	49.1908	33.834	-31.5638	57.9501	34.5135	7.4912	56.1169	-2.18224	-28.7295	41.7699	22.5413	-15.908	59.2177	20.1773	13.3649	51.3953	-14.0094	-18.5367	36.9849	5.70079	-15.0862	47.7707	13.4989	14.7044	94.3263	-35.1018	3.53008	105.015	-44.5184	30.9409	124.449	-16.2231	11.579	
180	1.5	122.409	15.0623	26.7461	108.526	36.4906	7.55889	92.6519	48.0287	-17.3925	71.353	52.0514	-32.9746	94.4093	14.8188	-43.1256	70.2001	38.6171	-53.6013	55.2178	59.4275	-36.8512	74.0933	6.3621	-42.7496	54.1992	30.8797	-36.3472	59.2608	31.5385	2.84708	64.3608	-5.03699	-31.3813	42.81	16.8644	-18.1474	58.1386	18.1104	8.48958	56.2441	-21.524	-16.9143	39.0294	1.84669	-15.7865	50.6989	6.23617	12.7633	95.6727	-39.1525	0.301515	109.475	-47.28	32.598	127.486	-19.2946	12.1613	
181	1.50833	119.411	17.4994	24.1481	101.162	35.3293	3.66585	83.552	44.4265	-15.6093	60.5662	38.2395	-29.564	92.1529	12.9391	-44.7491	65.1266	31.9814	-53.5618	47.6009	47.4363	-37.6019	73.8105	-3.71432	-41.8094	48.4922	19.545	-37.3629	55.1327	27.1233	2.26079	62.0003	-17.8585	-29.7443	39.9283	3.58952	-19.6919	56.149	12.6934	6.82586	54.9515	-29.6741	-17.6628	40.4018	-7.83699	-12.6316	50.2457	-0.92185	12.7438	105.153	-38.4038	4.18472	115.804	-44.636	30.4032	127.176	-16.7138	13.3857	
182	1.51667	113.238	21.3088	25.8973	89.8127	32.8207	9.21088	65.8683	38.7881	-16.9916	44.2513	25.7573	-26.6654	81.3895	9.1592	-45.1922	52.8092	19.6221	-50.4529	32.6964	30.4675	-33.4321	71.1945	-9.67342	-39.2621	40.5431	3.54024	-35.7375	43.8956	16.7436	5.69258	64.3174	-24.6015	-27.5277	34.7867	-10.1454	-17.0662	48.4776	-2.49726	13.2278	57.426	-39.4459	-16.0974	39.3511	-21.1173	-8.76821	48.0781	-12.5157	16.3543	107.791	-40.4542	1.5179	119.858	-44.9089	34.1476	129.337	-12.1563	11.7395	
183	1.525	101.383	18.2001	28.9423	72.5185	27.4989	12.0198	48.388	30.3033	-6.65143	27.8676	13.007	-17.5855	73.1781	1.03919	-37.935	41.19	10.7165	-44.5477	18.0037	17.7596	-27.8238	62.788	-19.3742	-35.1144	29.6422	-9.66196	-27.9063	31.4487	-2.66739	11.1826	56.9681	-34.4664	-25.8356	30.6742	-24.4861	-10.602	41.1148	-13.5899	17.0358	60.2278	-52.0704	-9.01014	36.0722	-38.8337	-2.18732	47.9797	-24.0319	23.4041	110.054	-40.1354	3.43882	124.86	-40.6992	34.071	122.986	-6.25606	11.3934	
184	1.53333	89.2641	19.0204	28.8888	58.6101	18.0767	16.6629	31.1359	15.3784	2.58483	16.7489	-4.24516	-4.88487	57.5183	-1.78773	-34.5138	24.7508	-3.15522	-35.274	4.10781	-3.22288	-16.7337	53.2131	-26.1702	-31.2171	24.1687	-25.7638	-21.2221	22.6627	-16.6222	20.6774	56.7509	-41.5667	-19.1736	27.8848	-37.1636	-5.15882	38.5006	-27.3877	25.4957	62.596	-56.5698	-5.35268	35.5841	-54.5182	6.36826	44.1623	-39.9204	31.1236	108.713	-35.917	4.17755	125.971	-32.6772	28.2537	115.282	-3.04776	12.5231	
185	1.54167	82.551	16.0758	33.2986	48.4677	14.6025	26.218	23.6056	2.81044	13.4267	7.23246	-17.1278	5.19571	45.489	-8.67111	-30.1457	17.3278	-13.3581	-28.8279	-5.36214	-18.7689	-3.252	44.376	-27.7679	-28.635	17.2141	-34.6932	-11.1928	19.1407	-27.7702	24.1322	50.0039	-47.7882	-16.7822	28.5725	-51.2236	-0.628647	35.9299	-34.0029	29.5215	63.8824	-59.9771	-4.20966	37.3507	-59.3626	10.4053	45.9914	-47.0405	34.2436	105.42	-33.0841	-0.896393	127.006	-28.8828	28.293	110.079	2.24912	11.5263	
186	1.55	79.8716	17.261	32.4599	44.5186	11.939	24.7306	19.3579	-1.86397	11.849	4.5357	-21.1477	5.42733	44.1065	-7.73275	-29.5181	12.2776	-16.7225	-25.5792	-6.41852	-23.7874	-3.20497	46.0891	-29.0056	-29.4456	16.2265	-36.3618	-16.115	19.5656	-30.793	26.8199	51.6883	-50.2468	-19.1223	30.2045	-53.6108	-0.377909	37.6191	-37.544	28.2613	63.0242	-65.5747	-7.35388	40.4731	-60.062	7.12208	46.6495	-45.362	30.8799	106.497	-28.9081	-2.95165	127.953	-25.3481	20.4753	104.679	4.54885	3.41688	
187	1.55833	82.856	19.8558	27.1926	49.6244	12.8038	14.4692	23.0552	5.03825	3.66413	7.47127	-14.619	-6.92487	52.9688	-6.98283	-38.5352	17.0642	-13.4048	-38.5033	-0.835913	-22.6944	-19.1327	53.485	-26.9526	-38.3738	20.6252	-32.668	-24.1649	24.0855	-29.0549	14.0991	57.533	-44.6295	-29.6844	33.9395	-48.3463	-13.9676	42.1238	-34.5581	18.9248	67.298	-62.4145	-16.984	44.6982	-60.4528	-0.0747858	52.0603	-42.4199	24.0127	113.963	-28.4814	-8.39513	129.558	-21.7874	14.3479	108.409	7.39039	0.028252	
188	1.56667	88.4617	23.5359	18.2063	56.9825	23.2492	0.577274	36.1751	13.3461	-22.3734	21.5255	-1.43674	-35.4523	71.9994	5.62462	-57.6461	41.4193	-4.94143	-65.5078	18.3106	-13.6404	-51.9182	71.7863	-16.8054	-59.0447	43.1968	-28.8797	-54.3702	32.9894	-24.2868	-12.9945	76.8355	-33.52	-47.3239	49.176	-43.3593	-38.3185	48.5014	-32.9176	-3.95921	84.7856	-49.165	-33.9245	56.5409	-50.995	-26.2388	56.9187	-36.0771	1.70604	124.391	-20.6132	-11.7126	136.089	-15.0921	10.798	121.896	11.2494	-0.32372	
189	1.575	89.9139	29.9325	2.8943	69.7111	26.4656	-23.3379	53.9077	23.7996	-50.7498	46.018	13.0286	-68.9029	105.028	19.4904	-69.323	83.8666	12.4207	-97.511	57.4259	2.72714	-97.4257	103.667	-4.63511	-76.6871	70.385	-14.941	-85.5233	47.9468	-18.5348	-56.2786	102.147	-23.6852	-67.5147	73.8743	-31.9656	-67.7319	61.7739	-31.106	-36.842	109.714	-42.6893	-49.2671	79.5769	-41.9838	-53.3391	70.3568	-34.5569	-28.8419	138.915	-12.1701	-17.5458	141.921	-7.94407	11.6194	127.111	22.0008	-4.68777	
